<?xml version="1.0" standalone="no"?>
<!DOCTYPE svg PUBLIC "-//W3C//DTD SVG 20010904//EN"
 "http://www.w3.org/TR/2001/REC-SVG-20010904/DTD/svg10.dtd">
<svg version="1.0" xmlns="http://www.w3.org/2000/svg"
 width="512.000000pt" height="512.000000pt" viewBox="0 0 512.000000 512.000000"
 preserveAspectRatio="xMidYMid meet">
<metadata>
Created by potrace 1.16, written by Peter Selinger 2001-2019
</metadata>
<g transform="translate(0.000000,512.000000) scale(0.100000,-0.100000)"
fill="#000000" stroke="none">
<path d="M3755 4894 c-55 -14 -248 -61 -428 -105 -180 -43 -346 -87 -367 -96
l-40 -18 386 -405 c401 -422 430 -452 421 -435 -3 7 173 54 469 125 271 65
474 119 474 125 0 18 -780 829 -800 832 -8 1 -60 -9 -115 -23z"/>
<path d="M1590 4355 c-638 -163 -612 -155 -591 -174 20 -17 663 -691 744 -779
l48 -52 74 21 c41 11 83 22 94 24 11 2 28 8 38 13 10 5 183 49 385 98 260 62
365 92 360 100 -4 6 -146 157 -317 335 -170 178 -346 363 -390 410 -48 53 -88
87 -100 87 -11 0 -166 -37 -345 -83z"/>
<path d="M20 3953 c0 -3 52 -217 115 -474 l115 -468 0 -1248 c0 -1386 -3
-1324 67 -1462 58 -115 175 -218 311 -273 l57 -23 1968 -3 c2188 -3 2021 -8
2159 65 83 43 185 148 228 233 60 119 60 113 60 938 l0 752 -426 0 c-367 0
-425 2 -421 14 3 8 102 183 220 388 243 424 337 592 337 601 0 4 -224 7 -499
7 -490 0 -499 0 -504 -20 -3 -11 -130 -238 -282 -505 l-277 -485 -498 0 -498
0 265 463 c145 254 275 479 289 499 13 21 24 40 24 43 0 3 -227 5 -505 5 -401
0 -505 -3 -505 -13 0 -11 -124 -231 -465 -824 l-99 -173 -497 0 -497 0 284
496 c156 273 284 500 284 505 0 5 -109 10 -243 11 l-242 3 232 54 c128 30 233
58 233 62 0 5 -62 73 -137 151 -254 264 -528 552 -591 620 -34 37 -62 65 -62
61z"/>
</g>
</svg>
